<?xml version="1.0" encoding="utf-8"?>
<!-- Generator: Adobe Illustrator 23.0.1, SVG Export Plug-In . SVG Version: 6.00 Build 0)  -->
<svg version="1.1" id="Layer_1" xmlns="http://www.w3.org/2000/svg" xmlns:xlink="http://www.w3.org/1999/xlink" x="0px" y="0px"
	 viewBox="0 0 520 520" style="enable-background:new 0 0 520 520;" xml:space="preserve">
<style type="text/css">
	.st0{fill:none;stroke:#E6E6E6;stroke-width:100;stroke-miterlimit:10;}
	.st1{fill:none;stroke:#7AC943;stroke-width:100;stroke-miterlimit:10;}
	.st2{fill:#3D3B3B;}
	.st3{fill:#828181;}
	.st4{fill:none;stroke:#B91A00;stroke-width:3;stroke-miterlimit:10;}
</style>
<g id="background">
	<circle class="st0" cx="261" cy="260" r="205"/>
</g>
<g id="front">
	<path class="st1" d="M261,55c113.2,0,205,91.8,205,205s-91.8,205-205,205c-87.9,0-162.9-55.3-192-133.1"/>
	<g>
		<g>
			<path class="st2" d="M244.7,219.5l-45.5,154h-26.3L218.5,221h-44.8v25.3H149v-48.8h95.8v22H244.7z"/>
			<path class="st2" d="M295.2,370.2c-6.9-3.5-12.5-8.5-16.8-15.1s-7.2-14.6-8.7-23.9v-0.1h24.7v0.1c0.9,6.5,3.5,11.5,7.8,15.1
				s9.8,5.4,16.7,5.4c7.9,0,14-2.6,18.3-7.9s6.5-12.7,6.5-22.3v-14.8c0-9.5-2.2-16.9-6.5-22.2c-4.3-5.3-10.4-7.9-18.3-7.9
				c-4.3,0-8.4,1.2-12.4,3.6s-7.4,5.8-10.4,10.2h-22.5v-92.8h89.7V221h-65v39.6c3.1-2.5,6.5-4.4,10.3-5.8c3.8-1.4,7.7-2.1,11.6-2.1
				c10.2,0,18.9,2.1,26.1,6.3c7.2,4.2,12.7,10.3,16.5,18.4s5.6,17.8,5.6,29.2v14.8c0,11.4-1.9,21.1-5.8,29.2s-9.5,14.2-17,18.5
				c-7.4,4.2-16.3,6.4-26.8,6.4C310,375.4,302.1,373.7,295.2,370.2z"/>
		</g>
	</g>
</g>
<g>
	<g>
		<path class="st3" d="M176.9,170.1c-1.5-1.2-2.2-3.1-2.2-5.7c0-2.4,0.7-4.2,2-5.4s3.4-1.8,6.2-1.8h6.9l0.3,3.8h-7.2
			c-1.3,0-2.2,0.3-2.8,0.8s-0.9,1.4-0.9,2.5c0,1.2,0.4,2.1,1.2,2.7s2.1,0.9,3.7,0.9c1.8,0,3.2-0.2,4.1-0.6s1.3-1,1.3-1.8l0.5,3.4
			c-0.4,0.7-0.9,1.2-1.6,1.6s-1.3,0.7-2.1,0.9s-1.7,0.3-2.7,0.3C180.6,171.9,178.3,171.3,176.9,170.1z M189.5,156.2
			c0-1.6-0.4-2.8-1.3-3.7s-2.1-1.3-3.6-1.3c-1,0-1.9,0.1-2.8,0.4s-1.8,0.7-2.5,1.2l-3.5-2.4c0.9-1.1,2.1-2,3.6-2.6s3.2-0.9,5-0.9
			c2,0,3.7,0.4,5.2,1.1s2.5,1.7,3.3,3.1s1.1,3,1.1,4.9v15.6h-4.5V156.2z"/>
		<path class="st3" d="M199.6,147.3h4.8v24.3h-4.8V147.3z M214.4,156.8c0-1.7-0.4-3-1.3-4s-2.1-1.4-3.8-1.4c-1.6,0-2.8,0.4-3.6,1.2
			s-1.3,2-1.3,3.5l-0.5-4.7c0.8-1.5,1.7-2.6,2.9-3.4s2.6-1.2,4-1.2c2.6,0,4.7,0.9,6.1,2.6s2.2,4.2,2.2,7.3v14.8h-4.8V156.8z"/>
		<path class="st3" d="M225.8,170.1c-1.5-1.2-2.2-3.1-2.2-5.7c0-2.4,0.7-4.2,2-5.4s3.4-1.8,6.2-1.8h6.9l0.3,3.8h-7.2
			c-1.3,0-2.2,0.3-2.8,0.8s-0.9,1.4-0.9,2.5c0,1.2,0.4,2.1,1.2,2.7s2.1,0.9,3.7,0.9c1.8,0,3.2-0.2,4.1-0.6s1.3-1,1.3-1.8l0.5,3.4
			c-0.4,0.7-0.9,1.2-1.6,1.6s-1.3,0.7-2.1,0.9s-1.7,0.3-2.7,0.3C229.5,171.9,227.3,171.3,225.8,170.1z M238.4,156.2
			c0-1.6-0.4-2.8-1.3-3.7s-2.1-1.3-3.6-1.3c-1,0-1.9,0.1-2.8,0.4s-1.8,0.7-2.5,1.2l-3.5-2.4c0.9-1.1,2.1-2,3.6-2.6s3.2-0.9,5-0.9
			c2,0,3.7,0.4,5.2,1.1s2.5,1.7,3.3,3.1s1.1,3,1.1,4.9v15.6h-4.5V156.2z"/>
		<path class="st3" d="M253.3,165.3c0,0.6,0.1,1.1,0.4,1.4s0.6,0.5,1.1,0.5h2.3v4.5h-2.8c-1.8,0-3.2-0.6-4.2-1.7s-1.5-2.7-1.5-4.8
			v-27.8h4.8V165.3z"/>
		<path class="st3" d="M258.1,147.3h4.9l7.5,21.1l-2.6,5.2L258.1,147.3z M279.7,147.3l-10.4,30c-0.4,1.1-0.9,2-1.5,2.6
			s-1.4,1.1-2.3,1.4s-2,0.4-3.3,0.4h-1v-4.6h1c0.9,0,1.6-0.2,2.1-0.5s1-1,1.4-1.9l9-27.5H279.7z"/>
		<path class="st3" d="M280.3,147.3h11v4.3h-11V147.3z M284.2,170.1c-0.9-1.1-1.4-2.7-1.4-4.8v-25.1h4.8v25.1c0,0.6,0.1,1.1,0.4,1.4
			s0.6,0.5,1,0.5h2.3v4.5h-2.8C286.5,171.7,285.1,171.2,284.2,170.1z"/>
		<path class="st3" d="M296.1,137.5h4.8v4.8h-4.8V137.5z M296.1,147.3h4.8v24.3h-4.8V147.3z"/>
		<path class="st3" d="M312.9,171.9c0,0-0.8-0.4-2.4-1.2s-2.8-2-3.6-3.6s-1.2-3.5-1.2-5.7v-4c0-2.2,0.4-4.1,1.2-5.6s2-2.8,3.6-3.6
			s3.5-1.2,5.7-1.2c1.3,0,2.5,0.2,3.6,0.5s2.1,0.7,3,1.3s1.6,1.3,2.2,2.1l-3.4,3.1c-0.7-0.8-1.5-1.4-2.4-1.8s-1.9-0.6-2.9-0.6
			c-1.8,0-3.3,0.5-4.3,1.5s-1.5,2.5-1.5,4.4v4c0,1.9,0.5,3.4,1.5,4.5s2.4,1.6,4.3,1.6c1,0,2-0.2,2.9-0.7s1.7-1.1,2.4-1.9l3.4,3.3
			c-0.6,0.8-1.4,1.5-2.3,2.1s-1.9,1-3,1.3s-2.3,0.4-3.6,0.4C314,171.9,312.9,171.9,312.9,171.9z"/>
		<path class="st3" d="M335,171.9c0,0-0.6-0.1-1.9-0.4s-2.4-0.7-3.5-1.3s-2.1-1.3-3-2.1l2.8-3.5c1.3,1,2.6,1.8,3.9,2.3
			s2.6,0.8,3.8,0.8c1.9,0,3.3-0.3,4.3-0.9s1.4-1.5,1.4-2.6c0-0.8-0.3-1.4-0.8-1.8s-1.2-0.7-1.9-0.8s-1.8-0.3-3.2-0.4
			c-0.1,0-0.3,0-0.4,0s-0.3,0-0.4,0c-0.1,0-0.1,0-0.2,0s-0.1,0-0.2,0c-1.6-0.1-2.9-0.4-4-0.7s-2-1-2.7-1.9s-1.1-2.2-1.1-4
			s0.4-3.1,1.1-4.3s1.8-2,3.1-2.6s3.1-0.9,5.2-0.9c1.3,0,2.5,0.1,3.6,0.4s2.2,0.6,3.3,1s2.1,1,3,1.7l-2.9,3.5
			c-1.2-0.8-2.4-1.4-3.6-1.8s-2.3-0.6-3.5-0.6c-1.6,0-2.8,0.3-3.7,0.8s-1.2,1.4-1.2,2.5c0,0.7,0.2,1.1,0.7,1.5s1,0.5,1.7,0.7
			s1.7,0.2,3,0.3c0.1,0,0.2,0,0.3,0s0.2,0,0.3,0c0,0,0.1,0,0.1,0s0.1,0,0.1,0c1.7,0.1,3.2,0.3,4.3,0.7s2.2,1,3,2s1.2,2.5,1.2,4.4
			c0,1.8-0.4,3.2-1.1,4.3s-1.9,2-3.4,2.6s-3.4,0.9-5.7,0.9C335.7,171.9,335,171.9,335,171.9z"/>
	</g>
</g>
<line class="st4" x1="174.6" y1="179" x2="257.1" y2="179"/>
<line class="st4" x1="272.5" y1="179" x2="349.4" y2="179"/>
</svg>
