<?xml version="1.0" encoding="utf-8"?>
<!-- Generator: Adobe Illustrator 23.0.1, SVG Export Plug-In . SVG Version: 6.00 Build 0)  -->
<svg version="1.1" xmlns="http://www.w3.org/2000/svg" xmlns:xlink="http://www.w3.org/1999/xlink" x="0px" y="0px"
	 viewBox="0 0 520 520" style="enable-background:new 0 0 520 520;" xml:space="preserve">
<style type="text/css">
	.st0{fill:none;stroke:#E6E6E6;stroke-width:100;stroke-miterlimit:10;}
	.st1{fill:#3D3B3B;}
	.st2{fill:#828181;}
	.st3{fill:none;stroke:#B91A00;stroke-width:3;stroke-miterlimit:10;}
	.st4{fill:none;stroke:#2E3192;stroke-width:100;stroke-miterlimit:10;}
	.st5{fill:none;stroke:#3FA9F5;stroke-width:100;stroke-miterlimit:10;}
</style>
<g id="background">
	<circle class="st0" cx="261" cy="260" r="205"/>
</g>
<g id="front">
	<g>
		<g>
			<path class="st1" d="M179.3,369.3c-8.1-4-14.3-9.7-18.7-17.1c-4.4-7.4-6.6-16-6.6-25.7v-2.9c0-8.8,2.2-17.1,6.6-24.8
				c4.4-7.8,10.3-13.6,17.6-17.6c-6.2-3.4-11.2-8.3-15-14.7s-5.6-13.2-5.6-20.3v-4.2c0-9.2,2.1-17.3,6.2-24.3
				c4.1-7,9.9-12.4,17.4-16.2c7.5-3.8,16.2-5.8,26.2-5.8s18.6,1.9,26.2,5.8c7.5,3.8,13.3,9.2,17.4,16.2c4.1,7,6.2,15.1,6.2,24.3v4.2
				c0,7.3-1.9,14.1-5.8,20.5c-3.8,6.4-8.9,11.2-15.2,14.5c7.4,4,13.4,9.9,17.9,17.6c4.5,7.7,6.7,16,6.7,24.8v2.9
				c0,9.8-2.2,18.3-6.6,25.7c-4.4,7.4-10.6,13.1-18.7,17.1c-8.1,4-17.4,6.1-28.1,6.1S187.4,373.4,179.3,369.3z M222.5,348.3
				c4.4-2.3,7.7-5.4,10.1-9.5c2.4-4.1,3.6-8.8,3.6-14.1V323c0-5.4-1.2-10.2-3.6-14.2c-2.4-4.1-5.8-7.2-10.1-9.5
				c-4.4-2.3-9.4-3.4-15.1-3.4c-5.7,0-10.8,1.1-15.1,3.4c-4.4,2.3-7.7,5.4-10.1,9.6c-2.4,4.1-3.6,8.9-3.6,14.3v1.8
				c0,5.3,1.2,10,3.6,14c2.4,4,5.8,7.2,10.1,9.4c4.4,2.2,9.4,3.3,15.1,3.3C213.1,351.7,218.2,350.5,222.5,348.3z M220.5,268.9
				c3.8-2.1,6.7-5.2,8.8-9.1c2.1-4,3.1-8.5,3.1-13.7v-1.7c0-4.9-1-9.3-3.1-13.1c-2.1-3.8-5-6.7-8.8-8.8c-3.8-2.1-8.2-3.1-13.1-3.1
				c-4.9,0-9.3,1-13.1,3.1c-3.8,2.1-6.7,5-8.8,8.8c-2.1,3.8-3.1,8.2-3.1,13.2v1.8c0,5.1,1,9.6,3.1,13.5c2.1,3.9,5,6.9,8.8,9.1
				c3.8,2.1,8.2,3.2,13.1,3.2C212.3,272.1,216.7,271,220.5,268.9z"/>
			<path class="st1" d="M291.7,362.2c-8.5-8.8-12.8-21.1-12.8-36.8v-80c0-15.8,4.3-28.1,12.8-36.9c8.6-8.8,21-13.1,37.4-13.1
				c16.5,0,29,4.4,37.5,13.1c8.5,8.7,12.8,21,12.8,36.9v80c0,15.8-4.3,28.1-12.8,36.9c-8.6,8.8-21,13.1-37.4,13.1
				C312.7,375.4,300.2,371,291.7,362.2z M348.5,345.1c4.2-4.6,6.2-11.1,6.2-19.7v-80c0-8.6-2.1-15.1-6.2-19.7
				c-4.1-4.6-10.6-6.8-19.4-6.8c-8.8,0-15.3,2.3-19.4,6.8c-4.1,4.6-6.2,11.1-6.2,19.7v80c0,8.6,2.1,15.1,6.2,19.7
				c4.2,4.6,10.6,6.8,19.3,6.8S344.3,349.6,348.5,345.1z"/>
		</g>
	</g>
	<g>
		<g>
			<path class="st2" d="M215.8,165.8c-1.6-0.9-2.8-2.1-3.6-3.8c-0.8-1.7-1.2-3.7-1.2-6v-19h4.2v19.2c0,2.2,0.5,3.9,1.6,5
				s2.6,1.8,4.6,1.8c2,0,3.6-0.6,4.7-1.8c1.1-1.2,1.7-2.9,1.7-5V137h4.2v19c0,2.3-0.4,4.3-1.2,6c-0.8,1.7-2,2.9-3.6,3.8
				s-3.5,1.3-5.7,1.3C219.3,167.1,217.4,166.7,215.8,165.8z"/>
			<path class="st2" d="M244.5,149.8L252,137h4.7l-9.9,16.1l-8,13.7h-4.7L244.5,149.8z M244.7,153.7l-0.6-1l-9.7-15.7h4.7l7.2,12.1
				l0.7,1.1l10.2,16.6h-4.7L244.7,153.7z"/>
			<path class="st2" d="M265.5,172.5h-4l13.8-39h4L265.5,172.5z"/>
			<path class="st2" d="M289.9,165.8c-1.6-0.9-2.8-2.1-3.6-3.8c-0.8-1.7-1.2-3.7-1.2-6v-19h4.2v19.2c0,2.2,0.5,3.9,1.6,5
				s2.6,1.8,4.6,1.8c2,0,3.6-0.6,4.7-1.8c1.1-1.2,1.7-2.9,1.7-5V137h4.2v19c0,2.3-0.4,4.3-1.2,6c-0.8,1.7-2,2.9-3.6,3.8
				s-3.5,1.3-5.7,1.3C293.3,167.1,291.4,166.7,289.9,165.8z"/>
			<path class="st2" d="M315.7,166.8h-4.2V137h4.2V166.8z"/>
		</g>
	</g>
	<line class="st3" x1="201" y1="176.5" x2="328" y2="176.5"/>
	<path class="st4" d="M306,214"/>
	<path class="st5" d="M261,55c113.2,0,205,91.8,205,205s-91.8,205-205,205S56,373.2,56,260c0-38.8,10.8-75.1,29.5-106"/>
	<g>
		<g>
			<path class="st2" d="M609.9,185.1c-1.5-1.2-2.2-3.1-2.2-5.7c0-2.4,0.7-4.2,2-5.4s3.4-1.8,6.2-1.8h6.9l0.3,3.8h-7.2
				c-1.3,0-2.2,0.3-2.8,0.8s-0.9,1.4-0.9,2.5c0,1.2,0.4,2.1,1.2,2.7s2.1,0.9,3.7,0.9c1.8,0,3.2-0.2,4.1-0.6s1.3-1,1.3-1.8l0.5,3.4
				c-0.4,0.7-0.9,1.2-1.6,1.6s-1.3,0.7-2.1,0.9s-1.7,0.3-2.7,0.3C613.6,186.9,611.3,186.3,609.9,185.1z M622.5,171.2
				c0-1.6-0.4-2.8-1.3-3.7s-2.1-1.3-3.6-1.3c-1,0-1.9,0.1-2.8,0.4s-1.8,0.7-2.5,1.2l-3.5-2.4c0.9-1.1,2.1-2,3.6-2.6s3.2-0.9,5-0.9
				c2,0,3.7,0.4,5.2,1.1s2.5,1.7,3.3,3.1s1.1,3,1.1,4.9v15.6h-4.5V171.2z"/>
			<path class="st2" d="M632.6,162.3h4.8v24.3h-4.8V162.3z M647.4,171.8c0-1.7-0.4-3-1.3-4s-2.1-1.4-3.8-1.4c-1.6,0-2.8,0.4-3.6,1.2
				s-1.3,2-1.3,3.5l-0.5-4.7c0.8-1.5,1.7-2.6,2.9-3.4s2.6-1.2,4-1.2c2.6,0,4.7,0.9,6.1,2.6s2.2,4.2,2.2,7.3v14.8h-4.8V171.8z"/>
			<path class="st2" d="M658.8,185.1c-1.5-1.2-2.2-3.1-2.2-5.7c0-2.4,0.7-4.2,2-5.4s3.4-1.8,6.2-1.8h6.9l0.3,3.8h-7.2
				c-1.3,0-2.2,0.3-2.8,0.8s-0.9,1.4-0.9,2.5c0,1.2,0.4,2.1,1.2,2.7s2.1,0.9,3.7,0.9c1.8,0,3.2-0.2,4.1-0.6s1.3-1,1.3-1.8l0.5,3.4
				c-0.4,0.7-0.9,1.2-1.6,1.6s-1.3,0.7-2.1,0.9s-1.7,0.3-2.7,0.3C662.5,186.9,660.3,186.3,658.8,185.1z M671.4,171.2
				c0-1.6-0.4-2.8-1.3-3.7s-2.1-1.3-3.6-1.3c-1,0-1.9,0.1-2.8,0.4s-1.8,0.7-2.5,1.2l-3.5-2.4c0.9-1.1,2.1-2,3.6-2.6s3.2-0.9,5-0.9
				c2,0,3.7,0.4,5.2,1.1s2.5,1.7,3.3,3.1s1.1,3,1.1,4.9v15.6h-4.5V171.2z"/>
			<path class="st2" d="M686.3,180.3c0,0.6,0.1,1.1,0.4,1.4s0.6,0.5,1.1,0.5h2.3v4.5h-2.8c-1.8,0-3.2-0.6-4.2-1.7s-1.5-2.7-1.5-4.8
				v-27.8h4.8V180.3z"/>
			<path class="st2" d="M691.1,162.3h4.9l7.5,21.1l-2.6,5.2L691.1,162.3z M712.7,162.3l-10.4,30c-0.4,1.1-0.9,2-1.5,2.6
				s-1.4,1.1-2.3,1.4s-2,0.4-3.3,0.4h-1v-4.6h1c0.9,0,1.6-0.2,2.1-0.5s1-1,1.4-1.9l9-27.5H712.7z"/>
			<path class="st2" d="M713.3,162.3h11v4.3h-11V162.3z M717.2,185.1c-0.9-1.1-1.4-2.7-1.4-4.8v-25.1h4.8v25.1
				c0,0.6,0.1,1.1,0.4,1.4s0.6,0.5,1,0.5h2.3v4.5h-2.8C719.5,186.7,718.1,186.2,717.2,185.1z"/>
			<path class="st2" d="M729.1,152.5h4.8v4.8h-4.8V152.5z M729.1,162.3h4.8v24.3h-4.8V162.3z"/>
			<path class="st2" d="M745.9,186.9c0,0-0.8-0.4-2.4-1.2s-2.8-2-3.6-3.6s-1.2-3.5-1.2-5.7v-4c0-2.2,0.4-4.1,1.2-5.6s2-2.8,3.6-3.6
				s3.5-1.2,5.7-1.2c1.3,0,2.5,0.2,3.6,0.5s2.1,0.7,3,1.3s1.6,1.3,2.2,2.1l-3.4,3.1c-0.7-0.8-1.5-1.4-2.4-1.8s-1.9-0.6-2.9-0.6
				c-1.8,0-3.3,0.5-4.3,1.5s-1.5,2.5-1.5,4.4v4c0,1.9,0.5,3.4,1.5,4.5s2.4,1.6,4.3,1.6c1,0,2-0.2,2.9-0.7s1.7-1.1,2.4-1.9l3.4,3.3
				c-0.6,0.8-1.4,1.5-2.3,2.1s-1.9,1-3,1.3s-2.3,0.4-3.6,0.4C747,186.9,745.9,186.9,745.9,186.9z"/>
			<path class="st2" d="M768,186.9c0,0-0.6-0.1-1.9-0.4s-2.4-0.7-3.5-1.3s-2.1-1.3-3-2.1l2.8-3.5c1.3,1,2.6,1.8,3.9,2.3
				s2.6,0.8,3.8,0.8c1.9,0,3.3-0.3,4.3-0.9s1.4-1.5,1.4-2.6c0-0.8-0.3-1.4-0.8-1.8s-1.2-0.7-1.9-0.8s-1.8-0.3-3.2-0.4
				c-0.1,0-0.3,0-0.4,0s-0.3,0-0.4,0c-0.1,0-0.1,0-0.2,0s-0.1,0-0.2,0c-1.6-0.1-2.9-0.4-4-0.7s-2-1-2.7-1.9s-1.1-2.2-1.1-4
				s0.4-3.1,1.1-4.3s1.8-2,3.1-2.6s3.1-0.9,5.2-0.9c1.3,0,2.5,0.1,3.6,0.4s2.2,0.6,3.3,1s2.1,1,3,1.7l-2.9,3.5
				c-1.2-0.8-2.4-1.4-3.6-1.8s-2.3-0.6-3.5-0.6c-1.6,0-2.8,0.3-3.7,0.8s-1.2,1.4-1.2,2.5c0,0.7,0.2,1.1,0.7,1.5s1,0.5,1.7,0.7
				s1.7,0.2,3,0.3c0.1,0,0.2,0,0.3,0s0.2,0,0.3,0c0,0,0.1,0,0.1,0s0.1,0,0.1,0c1.7,0.1,3.2,0.3,4.3,0.7s2.2,1,3,2s1.2,2.5,1.2,4.4
				c0,1.8-0.4,3.2-1.1,4.3s-1.9,2-3.4,2.6s-3.4,0.9-5.7,0.9C768.7,186.9,768,186.9,768,186.9z"/>
		</g>
	</g>
</g>
</svg>
