<?xml version="1.0" encoding="utf-8"?>
<!-- Generator: Adobe Illustrator 23.0.1, SVG Export Plug-In . SVG Version: 6.00 Build 0)  -->
<svg version="1.1" xmlns="http://www.w3.org/2000/svg" xmlns:xlink="http://www.w3.org/1999/xlink" x="0px" y="0px"
	 viewBox="0 0 520 520" style="enable-background:new 0 0 520 520;" xml:space="preserve">
<style type="text/css">
	.st0{fill:none;stroke:#E6E6E6;stroke-width:100;stroke-miterlimit:10;}
	.st1{fill:#3D3B3B;}
	.st2{fill:#828181;}
	.st3{fill:none;stroke:#B91A00;stroke-width:3;stroke-miterlimit:10;}
	.st4{fill:none;stroke:#2E3192;stroke-width:100;stroke-miterlimit:10;}
	.st5{fill:none;stroke:#BDCCD4;stroke-width:100;stroke-miterlimit:10;}
</style>
<g id="background">
	<circle class="st0" cx="261" cy="260" r="205"/>
</g>
<g id="front">
	<g>
		<g>
			<path class="st1" d="M179.3,369.3c-8.1-4-14.3-9.7-18.7-17.1c-4.4-7.4-6.6-16-6.6-25.7v-2.9c0-8.8,2.2-17.1,6.6-24.8
				c4.4-7.8,10.3-13.6,17.6-17.6c-6.2-3.4-11.2-8.3-15-14.7s-5.6-13.2-5.6-20.3v-4.2c0-9.2,2.1-17.3,6.2-24.3
				c4.1-7,9.9-12.4,17.4-16.2c7.5-3.8,16.2-5.8,26.2-5.8s18.6,1.9,26.2,5.8c7.5,3.8,13.3,9.2,17.4,16.2c4.1,7,6.2,15.1,6.2,24.3v4.2
				c0,7.3-1.9,14.1-5.8,20.5c-3.8,6.4-8.9,11.2-15.2,14.5c7.4,4,13.4,9.9,17.9,17.6c4.5,7.7,6.7,16,6.7,24.8v2.9
				c0,9.8-2.2,18.3-6.6,25.7c-4.4,7.4-10.6,13.1-18.7,17.1c-8.1,4-17.4,6.1-28.1,6.1S187.4,373.4,179.3,369.3z M222.5,348.3
				c4.4-2.3,7.7-5.4,10.1-9.5c2.4-4.1,3.6-8.8,3.6-14.1V323c0-5.4-1.2-10.2-3.6-14.2c-2.4-4.1-5.8-7.2-10.1-9.5
				c-4.4-2.3-9.4-3.4-15.1-3.4c-5.7,0-10.8,1.1-15.1,3.4c-4.4,2.3-7.7,5.4-10.1,9.6c-2.4,4.1-3.6,8.9-3.6,14.3v1.8
				c0,5.3,1.2,10,3.6,14c2.4,4,5.8,7.2,10.1,9.4c4.4,2.2,9.4,3.3,15.1,3.3C213.1,351.7,218.2,350.5,222.5,348.3z M220.5,268.9
				c3.8-2.1,6.7-5.2,8.8-9.1c2.1-4,3.1-8.5,3.1-13.7v-1.7c0-4.9-1-9.3-3.1-13.1c-2.1-3.8-5-6.7-8.8-8.8c-3.8-2.1-8.2-3.1-13.1-3.1
				c-4.9,0-9.3,1-13.1,3.1c-3.8,2.1-6.7,5-8.8,8.8c-2.1,3.8-3.1,8.2-3.1,13.2v1.8c0,5.1,1,9.6,3.1,13.5c2.1,3.9,5,6.9,8.8,9.1
				c3.8,2.1,8.2,3.2,13.1,3.2C212.3,272.1,216.7,271,220.5,268.9z"/>
			<path class="st1" d="M304.4,370.2c-6.9-3.5-12.5-8.5-16.8-15.1c-4.3-6.6-7.2-14.6-8.7-23.9v-0.1h24.7v0.1
				c0.9,6.5,3.5,11.5,7.8,15.1c4.3,3.6,9.8,5.4,16.7,5.4c7.9,0,14-2.6,18.3-7.9c4.3-5.3,6.5-12.7,6.5-22.3v-14.8
				c0-9.5-2.2-16.9-6.5-22.2c-4.3-5.3-10.4-7.9-18.3-7.9c-4.3,0-8.4,1.2-12.4,3.6c-4,2.4-7.4,5.8-10.4,10.2h-22.5v-92.8h89.7V221
				h-65v39.6c3.1-2.5,6.5-4.4,10.3-5.8c3.8-1.4,7.7-2.1,11.6-2.1c10.2,0,18.9,2.1,26.1,6.3c7.2,4.2,12.7,10.3,16.5,18.4
				c3.8,8.1,5.6,17.8,5.6,29.2v14.8c0,11.4-1.9,21.1-5.8,29.2c-3.9,8.1-9.5,14.2-17,18.5c-7.4,4.2-16.3,6.4-26.8,6.4
				C319.2,375.4,311.3,373.7,304.4,370.2z"/>
		</g>
	</g>
	<g>
		<g>
			<path class="st2" d="M221,171.4c0,0-0.8-0.4-2.4-1.2s-2.8-2-3.6-3.6s-1.2-3.5-1.2-5.7v-4c0-2.2,0.4-4.1,1.2-5.6s2-2.8,3.6-3.6
				s3.5-1.2,5.7-1.2c1.3,0,2.5,0.2,3.6,0.5s2.1,0.7,3,1.3s1.6,1.3,2.2,2.1l-3.4,3.1c-0.7-0.8-1.5-1.4-2.4-1.8s-1.9-0.6-2.9-0.6
				c-1.8,0-3.3,0.5-4.3,1.5s-1.5,2.5-1.5,4.4v4c0,1.9,0.5,3.4,1.5,4.5s2.4,1.6,4.3,1.6c1,0,2-0.2,2.9-0.7s1.7-1.1,2.4-1.9l3.4,3.3
				c-0.6,0.8-1.4,1.5-2.3,2.1s-1.9,1-3,1.3s-2.3,0.4-3.6,0.4C222.1,171.4,221,171.4,221,171.4z"/>
			<path class="st2" d="M240.6,170.2c-1.5-0.8-2.6-2-3.4-3.6s-1.2-3.5-1.2-5.7v-4c0-2.2,0.4-4.1,1.2-5.7s1.9-2.8,3.4-3.6
				s3.3-1.2,5.4-1.2s3.9,0.4,5.4,1.2s2.6,2,3.4,3.6s1.2,3.5,1.2,5.7v4c0,2.2-0.4,4.1-1.2,5.7s-1.9,2.8-3.4,3.6s-3.3,1.2-5.4,1.2
				S242.1,171,240.6,170.2z M249.9,165.3c0.9-1,1.4-2.5,1.4-4.4v-4c0-1.9-0.5-3.4-1.4-4.4s-2.2-1.5-3.9-1.5s-3,0.5-3.9,1.5
				s-1.4,2.5-1.4,4.4v4c0,1.9,0.5,3.4,1.4,4.4s2.2,1.6,3.9,1.6S249,166.4,249.9,165.3z"/>
			<path class="st2" d="M264.3,170.3c-1.3-0.8-2.2-1.9-2.9-3.4s-1-3.3-1-5.3v-5.4c0-2.1,0.3-3.9,1-5.4s1.6-2.6,2.8-3.4
				s2.7-1.2,4.4-1.2c1.4,0,2.8,0.4,3.9,1.1s2.2,1.8,2.9,3.2l-0.5,5c0-1-0.2-1.9-0.6-2.6s-0.9-1.3-1.6-1.7s-1.6-0.6-2.6-0.6
				c-1.6,0-2.8,0.5-3.7,1.5s-1.3,2.4-1.3,4.1v5.3c0,1.8,0.4,3.1,1.3,4.1s2.1,1.4,3.7,1.4c1,0,1.9-0.2,2.6-0.6s1.3-1,1.6-1.7
				s0.6-1.6,0.6-2.7l0.3,5.1c-0.5,1.2-1.3,2.2-2.4,3s-2.5,1.2-4.1,1.2C267,171.5,265.5,171.1,264.3,170.3z M274.9,137h4.8v34.1h-4.8
				V137z"/>
			<path class="st2" d="M291.8,171.4c0,0-0.8-0.4-2.4-1.3s-2.8-2.1-3.6-3.7s-1.3-3.6-1.3-5.9v-2.7c0-2.4,0.4-4.5,1.2-6.2
				s2-3,3.5-3.9s3.4-1.3,5.5-1.3c2,0,3.8,0.5,5.2,1.5s2.5,2.5,3.3,4.4s1.1,4.2,1.1,6.9v1.6H288V157h11.9c-0.1-2-0.7-3.5-1.5-4.6
				s-2.1-1.7-3.6-1.7c-1.8,0-3.2,0.6-4.2,1.8s-1.5,2.9-1.5,5v3.1c0,2,0.5,3.6,1.6,4.6s2.6,1.6,4.5,1.6c1,0,1.9-0.2,2.9-0.6
				s1.8-0.9,2.6-1.6l3.1,3.1c-1.2,1.2-2.6,2.1-4.1,2.7s-3,0.9-4.5,0.9C293,171.4,291.8,171.4,291.8,171.4z"/>
		</g>
	</g>
	<line class="st3" x1="211" y1="178.5" x2="307.5" y2="178.5"/>
	<path class="st4" d="M306,214"/>
	<path class="st5" d="M261,55c113.2,0,205,91.8,205,205s-91.8,205-205,205S56,373.2,56,260c0-51.6,19.1-98.8,50.6-134.9"/>
</g>
</svg>
