<?xml version="1.0" encoding="utf-8"?>
<!-- Generator: Adobe Illustrator 23.0.1, SVG Export Plug-In . SVG Version: 6.00 Build 0)  -->
<svg version="1.1" xmlns="http://www.w3.org/2000/svg" xmlns:xlink="http://www.w3.org/1999/xlink" x="0px" y="0px"
	 viewBox="0 0 520 520" style="enable-background:new 0 0 520 520;" xml:space="preserve">
<style type="text/css">
	.st0{fill:none;stroke:#E6E6E6;stroke-width:100;stroke-miterlimit:10;}
	.st1{fill:#3D3B3B;}
	.st2{fill:#828181;}
	.st3{fill:none;stroke:#B91A00;stroke-width:3;stroke-miterlimit:10;}
	.st4{fill:none;stroke:#FF1D25;stroke-width:100;stroke-miterlimit:10;}
</style>
<g id="background">
	<circle class="st0" cx="261" cy="260" r="205"/>
</g>
<g id="front">
	<g>
		<g>
			<path class="st1" d="M218.2,286.1l-0.1,4.4c-2,3.7-5.1,6.4-9.1,8.2c-4.1,1.7-8.9,2.6-14.5,2.6c-8.4,0-15.8-2.1-22.2-6.4
				c-6.4-4.3-11.3-10.3-14.8-18.1c-3.5-7.8-5.3-16.8-5.3-27.1v-0.1c0-11.4,1.9-21.1,5.8-29.2c3.8-8.1,9.4-14.2,16.8-18.4
				c7.4-4.2,16.2-6.3,26.6-6.3c10.3,0,19.2,2.1,26.5,6.4c7.3,4.3,12.9,10.5,16.8,18.6c3.8,8.2,5.8,18,5.8,29.4v0.1
				c0,6.3-0.8,13-2.4,20.2c-1.6,7.1-3.9,14.2-6.9,21.3c-0.5,1.1-1,2.1-1.5,3.2s-1,2.2-1.6,3.2l-37.5,75.4h-26.6L218.2,286.1z
				 M219.3,270.9c4.2-5.2,6.4-12.6,6.4-22.2v-0.1c0-9.3-2.1-16.5-6.4-21.6s-10.2-7.6-18-7.6c-7.8,0-13.9,2.5-18.1,7.6
				s-6.4,12.3-6.4,21.7v0.1c0,9.5,2.1,16.9,6.4,22.1s10.3,7.8,18.1,7.8C209.1,278.8,215.1,276.1,219.3,270.9z"/>
			<path class="st1" d="M279.5,362.2c-8.5-8.8-12.8-21.1-12.8-36.8v-80c0-15.8,4.3-28.1,12.8-36.9c8.6-8.8,21-13.1,37.4-13.1
				c16.5,0,29,4.4,37.5,13.1c8.5,8.7,12.8,21,12.8,36.9v80c0,15.8-4.3,28.1-12.8,36.9c-8.6,8.8-21,13.1-37.4,13.1
				C300.5,375.4,288,371,279.5,362.2z M336.3,345.1c4.2-4.6,6.2-11.1,6.2-19.7v-80c0-8.6-2.1-15.1-6.2-19.7
				c-4.1-4.6-10.6-6.8-19.4-6.8c-8.8,0-15.3,2.3-19.4,6.8c-4.1,4.6-6.2,11.1-6.2,19.7v80c0,8.6,2.1,15.1,6.2,19.7
				c4.2,4.6,10.6,6.8,19.3,6.8S332.1,349.6,336.3,345.1z"/>
		</g>
	</g>
	<g>
		<g>
			<path class="st2" d="M204.7,170.3c-1.3-0.8-2.2-1.9-2.9-3.4s-1-3.3-1-5.3v-5.4c0-2.1,0.3-3.9,1-5.4s1.6-2.6,2.8-3.4
				s2.7-1.2,4.4-1.2c1.4,0,2.8,0.4,3.9,1.1s2.2,1.8,2.9,3.2l-0.5,5c0-1-0.2-1.9-0.6-2.6s-0.9-1.3-1.6-1.7s-1.6-0.6-2.6-0.6
				c-1.6,0-2.8,0.5-3.7,1.5s-1.3,2.4-1.3,4.1v5.3c0,1.8,0.4,3.1,1.3,4.1s2.1,1.4,3.7,1.4c1,0,1.9-0.2,2.6-0.6s1.3-1,1.6-1.7
				s0.6-1.6,0.6-2.7l0.3,5.1c-0.5,1.2-1.3,2.2-2.4,3s-2.5,1.2-4.1,1.2C207.4,171.5,205.9,171.1,204.7,170.3z M215.3,137h4.8v34.1
				h-4.8V137z"/>
			<path class="st2" d="M232.2,171.4c0,0-0.8-0.4-2.4-1.3s-2.8-2.1-3.6-3.7s-1.3-3.6-1.3-5.9v-2.7c0-2.4,0.4-4.5,1.2-6.2
				s2-3,3.5-3.9s3.4-1.3,5.5-1.3c2,0,3.8,0.5,5.2,1.5s2.5,2.5,3.3,4.4s1.1,4.2,1.1,6.9v1.6h-16.4V157h11.9c-0.1-2-0.7-3.5-1.5-4.6
				s-2.1-1.7-3.6-1.7c-1.8,0-3.2,0.6-4.2,1.8s-1.5,2.9-1.5,5v3.1c0,2,0.5,3.6,1.6,4.6s2.6,1.6,4.5,1.6c1,0,1.9-0.2,2.9-0.6
				s1.8-0.9,2.6-1.6l3.1,3.1c-1.2,1.2-2.6,2.1-4.1,2.7s-3,0.9-4.5,0.9C233.4,171.4,232.2,171.4,232.2,171.4z"/>
			<path class="st2" d="M256.1,171.4c0,0-0.6-0.1-1.9-0.4s-2.4-0.7-3.5-1.3s-2.1-1.3-3-2.1l2.8-3.5c1.3,1,2.6,1.8,3.9,2.3
				s2.6,0.8,3.8,0.8c1.9,0,3.3-0.3,4.3-0.9s1.4-1.5,1.4-2.6c0-0.8-0.3-1.4-0.8-1.8s-1.2-0.7-1.9-0.8s-1.8-0.3-3.2-0.4
				c-0.1,0-0.3,0-0.4,0s-0.3,0-0.4,0c-0.1,0-0.1,0-0.2,0s-0.1,0-0.2,0c-1.6-0.1-2.9-0.4-4-0.7s-2-1-2.7-1.9s-1.1-2.2-1.1-4
				s0.4-3.1,1.1-4.3s1.8-2,3.1-2.6s3.1-0.9,5.2-0.9c1.3,0,2.5,0.1,3.6,0.4s2.2,0.6,3.3,1s2.1,1,3,1.7l-2.9,3.5
				c-1.2-0.8-2.4-1.4-3.6-1.8s-2.3-0.6-3.5-0.6c-1.6,0-2.8,0.3-3.7,0.8s-1.2,1.4-1.2,2.5c0,0.7,0.2,1.1,0.7,1.5s1,0.5,1.7,0.7
				s1.7,0.2,3,0.3c0.1,0,0.2,0,0.3,0s0.2,0,0.3,0c0,0,0.1,0,0.1,0s0.1,0,0.1,0c1.7,0.1,3.2,0.3,4.3,0.7s2.2,1,3,2s1.2,2.5,1.2,4.4
				c0,1.8-0.4,3.2-1.1,4.3s-1.9,2-3.4,2.6s-3.4,0.9-5.7,0.9C256.8,171.4,256.1,171.4,256.1,171.4z"/>
			<path class="st2" d="M272.8,137h4.8v4.8h-4.8V137z M272.8,146.8h4.8v24.3h-4.8V146.8z"/>
			<path class="st2" d="M286.3,170.3c-1.3-0.8-2.2-1.9-2.9-3.4s-1-3.3-1-5.3v-5.4c0-2.1,0.3-3.9,1-5.4s1.6-2.6,2.8-3.4
				s2.7-1.2,4.4-1.2c1.4,0,2.8,0.4,3.9,1.1s2.2,1.8,2.9,3.2l-0.5,5c0-1-0.2-1.9-0.6-2.6s-0.9-1.3-1.6-1.7s-1.6-0.6-2.6-0.6
				c-1.6,0-2.8,0.5-3.7,1.5s-1.3,2.4-1.3,4.1v5.3c0,1.8,0.4,3.1,1.3,4.1s2.1,1.4,3.7,1.4c1,0,1.9-0.2,2.6-0.6s1.3-1,1.6-1.7
				s0.6-1.6,0.6-2.7l0.3,5.1c-0.5,1.2-1.3,2.2-2.4,3s-2.5,1.2-4.1,1.2C289.1,171.5,287.5,171.1,286.3,170.3z M288.5,181
				c0,0-0.7-0.3-2.2-1s-2.6-1.6-3.4-2.9l3.2-2.9c0.6,0.9,1.4,1.5,2.2,2s1.8,0.7,2.7,0.7c1.8,0,3.2-0.5,4.2-1.5s1.5-2.4,1.5-4.3
				v-24.3h4.8v23.6c0,2.2-0.4,4.1-1.2,5.7s-2,2.8-3.6,3.6s-3.4,1.2-5.6,1.2C289.5,181,288.5,181,288.5,181z"/>
			<path class="st2" d="M307.3,146.8h4.8v24.3h-4.8V146.8z M322,156.3c0-1.7-0.4-3-1.3-4s-2.1-1.4-3.8-1.4c-1.6,0-2.8,0.4-3.6,1.2
				s-1.3,2-1.3,3.5l-0.5-4.7c0.8-1.5,1.7-2.6,2.9-3.4s2.6-1.2,4-1.2c2.6,0,4.7,0.9,6.1,2.6s2.2,4.2,2.2,7.3v14.8H322V156.3z"/>
		</g>
	</g>
	<line class="st3" x1="199" y1="178.5" x2="281.5" y2="178.5"/>
	<line class="st3" x1="302" y1="178.5" x2="330.5" y2="178.5"/>
	<path class="st4" d="M261,55c113.2,0,205,91.8,205,205s-91.8,205-205,205S56,373.2,56,260c0-63.2,28.6-119.8,73.7-157.4"/>
</g>
</svg>
